nColumns=28
nRows=116
DataType=double
version=3
OpenSimVersion=4.1
endheader
time	ground_force_1_vx	ground_force_1_vy	ground_force_1_vz	ground_force_1_px	ground_force_1_py	ground_force_1_pz	ground_force_1_mx	ground_force_1_my	ground_force_1_mz	ground_force_2_vx	ground_force_2_vy	ground_force_2_vz	ground_force_2_px	ground_force_2_py	ground_force_2_pz	ground_force_2_mx	ground_force_2_my	ground_force_2_mz	ground_force_3_vx	ground_force_3_vy	ground_force_3_vz	ground_force_3_px	ground_force_3_py	ground_force_3_pz	ground_force_3_mx	ground_force_3_my	ground_force_3_mz
1.18	-49.874	65.8898	-2.49729	-0.059783	0.006	-0.464997	0	-0.011285	0	-74.0676	96.457	17.4358	-0.101273	0.006	-0.81524	0	-0.684156	0	0	0	0	0	0	0	0	0	0
1.19	-335.825	504.562	-10.8894	-0.084791	0.006	-0.46155	0	1.18643	0	-418.747	618.832	64.3095	-0.117616	0.006	-0.817702	0	-1.43847	0	0	0	0	0	0	0	0	0	0
1.2	-442.134	815.518	-40.2446	-0.094886	0.006	-0.460604	0	4.30685	0	-472.545	837.348	102.168	-0.12474	0.006	-0.819753	0	-3.23014	0	0	0	0	0	0	0	0	0	0
1.21	-110.048	649.134	-53.7825	-0.106928	0.006	-0.458861	0	4.10578	0	-132.547	849.839	106.683	-0.170233	0.006	-0.811908	0	-7.01759	0	0	0	0	0	0	0	0	0	0
1.22	-82.8779	723.547	-54.6734	-0.132237	0.006	-0.459132	0	1.40991	0	5.79968	1472.45	91.9031	-0.228367	0.006	-0.795968	0	2.4452	0	0	0	0	0	0	0	0	0	0
1.23	-196.651	1171.31	-76.6607	-0.176666	0.006	-0.464068	0	-3.46848	0	6.65633	1728.01	-18.6203	-0.24055	0.006	-0.787255	0	15.4513	0	0	0	0	0	0	0	0	0	0
1.24	-175.769	1526.78	-31.821	-0.201944	0.006	-0.470215	0	-10.4714	0	-261.141	1225.23	-32.5512	-0.214138	0.006	-0.786492	0	22.0641	0	0	0	0	0	0	0	0	0	0
1.25	-210.749	1265.13	40.5979	-0.19486	0.006	-0.4739	0	-13.8067	0	-434.19	889.24	54.5612	-0.175831	0.006	-0.794218	0	19.5013	0	0	0	0	0	0	0	0	0	0
1.26	-279.814	859.675	31.7309	-0.165425	0.006	-0.472411	0	-12.2326	0	-326.896	853.508	107.715	-0.178772	0.006	-0.798266	0	12.4911	0	0	0	0	0	0	0	0	0	0
1.27	-295.376	680.218	-26.5411	-0.142591	0.006	-0.465703	0	-7.40973	0	-169.407	963.846	122.19	-0.200425	0.006	-0.796441	0	10.0476	0	0	0	0	0	0	0	0	0	0
1.28	-253.497	672.007	-56.5149	-0.145935	0.006	-0.462108	0	-4.88693	0	-110.688	993.191	89.706	-0.207725	0.006	-0.792957	0	10.9776	0	0	0	0	0	0	0	0	0	0
1.29	-177.919	758.529	-47.1214	-0.164722	0.006	-0.464532	0	-6.69322	0	-128.626	991.292	47.9228	-0.206882	0.006	-0.789148	0	12.6628	0	0	0	0	0	0	0	0	0	0
1.3	-111.089	884.481	-28.5726	-0.18263	0.006	-0.46878	0	-10.4984	0	-97.8607	1061.24	31.7867	-0.212672	0.006	-0.786332	0	12.6378	0	0	0	0	0	0	0	0	0	0
1.31	-80.0363	969.947	-17.8552	-0.192018	0.006	-0.471763	0	-13.828	0	-40.9922	1145.65	37.2551	-0.220256	0.006	-0.785318	0	11.4418	0	0	0	0	0	0	0	0	0	0
1.32	-69.4778	986.589	-21.4703	-0.194936	0.006	-0.472803	0	-15.5531	0	-14.916	1148.46	43.4879	-0.22242	0.006	-0.785177	0	10.5701	0	0	0	0	0	0	0	0	0	0
1.33	-55.5518	975.042	-35.3884	-0.195855	0.006	-0.472495	0	-16.3542	0	-11.4736	1101.85	40.2733	-0.220918	0.006	-0.784979	0	10.2199	0	0	0	0	0	0	0	0	0	0
1.34	-34.8266	976.837	-44.4433	-0.197189	0.006	-0.472376	0	-17.1816	0	-2.64538	1079.65	38.5687	-0.219796	0.006	-0.784765	0	9.83241	0	0	0	0	0	0	0	0	0	0
1.35	-12.5803	997.843	-44.3796	-0.19803	0.006	-0.472717	0	-18.1618	0	7.025	1098.43	40.196	-0.21942	0.006	-0.784543	0	9.2425	0	0	0	0	0	0	0	0	0	0
1.36	4.2372	1016.35	-42.5784	-0.195806	0.006	-0.472853	0	-18.4987	0	18.7352	1134.83	38.3561	-0.21893	0.006	-0.784174	0	8.58002	0	0	0	0	0	0	0	0	0	0
1.37	11.7086	1008.57	-46.0979	-0.189484	0.006	-0.472233	0	-17.7135	0	34.658	1161.99	33.6334	-0.216747	0.006	-0.783918	0	7.82718	0	0	0	0	0	0	0	0	0	0
1.38	15.5452	981.276	-51.3953	-0.180654	0.006	-0.471184	0	-16.5075	0	41.3265	1163.93	29.8107	-0.211415	0.006	-0.784062	0	7.03472	0	0	0	0	0	0	0	0	0	0
1.39	17.9481	956.001	-52.2016	-0.171203	0.006	-0.470531	0	-15.9085	0	30.589	1142.14	29.4443	-0.203458	0.006	-0.784637	0	6.47717	0	0	0	0	0	0	0	0	0	0
1.4	12.8292	946.718	-52.2388	-0.162333	0.006	-0.470281	0	-16.005	0	15.8952	1114.8	32.9805	-0.195028	0.006	-0.785548	0	6.31163	0	0	0	0	0	0	0	0	0	0
1.41	4.72161	960.842	-56.7656	-0.155638	0.006	-0.470156	0	-16.0796	0	7.12978	1102.55	36.5909	-0.187881	0.006	-0.786486	0	6.6358	0	0	0	0	0	0	0	0	0	0
1.42	-0.121475	987.232	-63.6852	-0.151066	0.006	-0.470049	0	-15.9713	0	4.12994	1113.32	36.3852	-0.182917	0.006	-0.787032	0	7.3899	0	0	0	0	0	0	0	0	0	0
1.43	-5.90708	1004.31	-68.729	-0.146859	0.006	-0.470121	0	-15.8019	0	7.23751	1130.14	34.8131	-0.179607	0.006	-0.787285	0	8.09341	0	0	0	0	0	0	0	0	0	0
1.44	-14.3627	999.522	-70.1875	-0.142141	0.006	-0.470452	0	-15.4561	0	7.60274	1130.81	36.2747	-0.176148	0.006	-0.787676	0	8.32437	0	0	0	0	0	0	0	0	0	0
1.45	-21.5522	977.868	-68.9094	-0.13744	0.006	-0.470929	0	-14.9065	0	-0.743701	1114.12	41.514	-0.172049	0.006	-0.788258	0	8.08304	0	0	0	0	0	0	0	0	0	0
1.46	-26.0161	952.209	-66.5586	-0.133651	0.006	-0.471616	0	-14.3133	0	-8.24532	1096.13	46.6719	-0.168856	0.006	-0.788674	0	7.79652	0	0	0	0	0	0	0	0	0	0
1.47	-24.5228	931.399	-64.6261	-0.131153	0.006	-0.472534	0	-13.7861	0	-7.22097	1087.22	47.9982	-0.167497	0.006	-0.788663	0	7.87534	0	0	0	0	0	0	0	0	0	0
1.48	-17.4502	920.821	-64.6662	-0.129451	0.006	-0.473745	0	-13.5586	0	0.145596	1083.55	47.6397	-0.167231	0.006	-0.788556	0	8.12532	0	0	0	0	0	0	0	0	0	0
1.49	-13.819	922.472	-64.6838	-0.127742	0.006	-0.475247	0	-13.8469	0	7.85161	1077.91	51.4828	-0.166477	0.006	-0.788832	0	7.97145	0	0	0	0	0	0	0	0	0	0
1.5	-14.5456	928.001	-64.4641	-0.125256	0.006	-0.476797	0	-14.2234	0	10.1627	1066.89	60.1201	-0.163824	0.006	-0.789409	0	7.28674	0	0	0	0	0	0	0	0	0	0
1.51	-17.7892	929.582	-65.5985	-0.121683	0.006	-0.47826	0	-14.1225	0	5.88768	1050.31	69.5525	-0.158842	0.006	-0.790035	0	6.25116	0	0	0	0	0	0	0	0	0	0
1.52	-25.7725	930.933	-65.6185	-0.117444	0.006	-0.479678	0	-13.603	0	-2.89698	1033.92	76.8434	-0.152377	0.006	-0.790521	0	5.30206	0	0	0	0	0	0	0	0	0	0
1.53	-39.2428	935.913	-64.9775	-0.113041	0.006	-0.48119	0	-12.8847	0	-13.7564	1026.01	80.494	-0.145725	0.006	-0.790509	0	4.82948	0	0	0	0	0	0	0	0	0	0
1.54	-53.8349	946.155	-65.5233	-0.108858	0.006	-0.482666	0	-12.0744	0	-25.2973	1027.05	82.6484	-0.139191	0.006	-0.789942	0	4.4467	0	0	0	0	0	0	0	0	0	0
1.55	-68.4746	963.467	-68.127	-0.105319	0.006	-0.483763	0	-11.1855	0	-37.8381	1031.08	84.6492	-0.132784	0.006	-0.789028	0	3.94787	0	0	0	0	0	0	0	0	0	0
1.56	-82.975	982.432	-72.7258	-0.102326	0.006	-0.484523	0	-10.1611	0	-50.5817	1037.73	84.7318	-0.127322	0.006	-0.787874	0	3.75042	0	0	0	0	0	0	0	0	0	0
1.57	-94.923	999.368	-78.1787	-0.099828	0.006	-0.485048	0	-9.03099	0	-61.4341	1045.69	84.3475	-0.123072	0.006	-0.786654	0	4.05413	0	0	0	0	0	0	0	0	0	0
1.58	-104.634	1014.89	-84.4603	-0.097745	0.006	-0.485262	0	-7.85138	0	-69.0028	1051.23	86.1328	-0.119625	0.006	-0.785682	0	4.40139	0	0	0	0	0	0	0	0	0	0
1.59	-112.179	1029.56	-91.5266	-0.095916	0.006	-0.485156	0	-6.73154	0	-76.6245	1054.14	89.6659	-0.11667	0.006	-0.785001	0	4.48405	0	0	0	0	0	0	0	0	0	0
1.6	-116.121	1041.52	-97.7904	-0.094339	0.006	-0.484967	0	-5.82556	0	-83.8262	1054.87	92.4044	-0.114274	0.006	-0.784486	0	4.45277	0	0	0	0	0	0	0	0	0	0
1.61	-120.09	1049.87	-101.684	-0.092882	0.006	-0.484762	0	-5.16053	0	-88.1714	1055.25	93.172	-0.112475	0.006	-0.784117	0	4.40824	0	0	0	0	0	0	0	0	0	0
1.62	-123.992	1053.53	-103.366	-0.091526	0.006	-0.484561	0	-4.64992	0	-92.3073	1056.98	92.7552	-0.111025	0.006	-0.783838	0	4.27555	0	0	0	0	0	0	0	0	0	0
1.63	-126.973	1052.84	-103.964	-0.0903	0.006	-0.484278	0	-4.19644	0	-95.9485	1058.93	91.8939	-0.10987	0.006	-0.783644	0	3.98219	0	0	0	0	0	0	0	0	0	0
1.64	-131.28	1049.19	-104.305	-0.089099	0.006	-0.483902	0	-3.72302	0	-99.8888	1060.43	90.5896	-0.108965	0.006	-0.783616	0	3.43526	0	0	0	0	0	0	0	0	0	0
1.65	-136.602	1043.39	-104.173	-0.088038	0.006	-0.48334	0	-3.28216	0	-106.512	1060.88	89.0713	-0.108222	0.006	-0.783767	0	2.65718	0	0	0	0	0	0	0	0	0	0
1.66	-142.632	1035.02	-103.126	-0.087084	0.006	-0.482727	0	-2.94979	0	-116.292	1057.85	86.9001	-0.107474	0.006	-0.783898	0	1.70144	0	0	0	0	0	0	0	0	0	0
1.67	-149.604	1022.35	-101.097	-0.086197	0.006	-0.481857	0	-2.73434	0	-128.57	1047.46	82.826	-0.106628	0.006	-0.783999	0	0.634185	0	0	0	0	0	0	0	0	0	0
1.68	-155.003	997.547	-97.989	-0.085325	0.006	-0.480559	0	-2.62284	0	-141.31	1022.23	76.9565	-0.10571	0.006	-0.784228	0	-0.485233	0	0	0	0	0	0	0	0	0	0
1.69	-155.748	951.18	-93.573	-0.084319	0.006	-0.47876	0	-2.49689	0	-150.348	971.774	70.5961	-0.104567	0.006	-0.784654	0	-1.5967	0	0	0	0	0	0	0	0	0	0
1.7	-148.493	875.834	-87.3612	-0.082785	0.006	-0.476221	0	-2.31085	0	-148.873	886.438	63.6895	-0.102945	0.006	-0.7855	0	-2.36997	0	0	0	0	0	0	0	0	0	0
1.71	-127.344	761.69	-75.6978	-0.08031	0.006	-0.472869	0	-2.19118	0	-127.946	754.1	51.2908	-0.100404	0.006	-0.787102	0	-2.35307	0	0	0	0	0	0	0	0	0	0
1.72	-86.8309	592.252	-51.1422	-0.076337	0.006	-0.469061	0	-2.35609	0	-76.8253	551.017	26.2031	-0.09602	0.006	-0.789405	0	-1.21299	0	0	0	0	0	0	0	0	0	0
1.73	-32.2982	370.886	-17.521	-0.070849	0.006	-0.465441	0	-2.48774	0	-12.3204	293.38	-2.32366	-0.087288	0.006	-0.791777	0	0.386697	0	0	0	0	0	0	0	0	0	0
1.74	11.9956	150.433	4.49198	-0.063719	0.006	-0.462249	0	-1.73644	0	20.8509	84.2919	-11.8852	-0.065455	0.006	-0.790438	0	1.06492	0	0	0	0	0	0	0	0	0	0
1.75	0	0	0	0	0	0	0	0	0	0	0	0	0	0	0	0	0	0	0	0	0	0	0	0	0	0	0
1.76	0	0	0	0	0	0	0	0	0	0	0	0	0	0	0	0	0	0	0	0	0	0	0	0	0	0	0
1.77	0	0	0	0	0	0	0	0	0	0	0	0	0	0	0	0	0	0	0	0	0	0	0	0	0	0	0
1.78	0	0	0	0	0	0	0	0	0	0	0	0	0	0	0	0	0	0	0	0	0	0	0	0	0	0	0
1.79	0	0	0	0	0	0	0	0	0	0	0	0	0	0	0	0	0	0	0	0	0	0	0	0	0	0	0
1.8	0	0	0	0	0	0	0	0	0	0	0	0	0	0	0	0	0	0	0	0	0	0	0	0	0	0	0
1.81	0	0	0	0	0	0	0	0	0	0	0	0	0	0	0	0	0	0	0	0	0	0	0	0	0	0	0
1.82	0	0	0	0	0	0	0	0	0	0	0	0	0	0	0	0	0	0	0	0	0	0	0	0	0	0	0
1.83	0	0	0	0	0	0	0	0	0	0	0	0	0	0	0	0	0	0	0	0	0	0	0	0	0	0	0
1.84	0	0	0	0	0	0	0	0	0	0	0	0	0	0	0	0	0	0	0	0	0	0	0	0	0	0	0
1.85	0	0	0	0	0	0	0	0	0	0	0	0	0	0	0	0	0	0	0	0	0	0	0	0	0	0	0
1.86	0	0	0	0	0	0	0	0	0	0	0	0	0	0	0	0	0	0	0	0	0	0	0	0	0	0	0
1.87	0	0	0	0	0	0	0	0	0	0	0	0	0	0	0	0	0	0	0	0	0	0	0	0	0	0	0
1.88	0	0	0	0	0	0	0	0	0	0	0	0	0	0	0	0	0	0	0	0	0	0	0	0	0	0	0
1.89	0	0	0	0	0	0	0	0	0	0	0	0	0	0	0	0	0	0	0	0	0	0	0	0	0	0	0
1.9	0	0	0	0	0	0	0	0	0	0	0	0	0	0	0	0	0	0	0	0	0	0	0	0	0	0	0
1.91	0	0	0	0	0	0	0	0	0	0	0	0	0	0	0	0	0	0	0	0	0	0	0	0	0	0	0
1.92	0	0	0	0	0	0	0	0	0	0	0	0	0	0	0	0	0	0	0	0	0	0	0	0	0	0	0
1.93	0	0	0	0	0	0	0	0	0	0	0	0	0	0	0	0	0	0	0	0	0	0	0	0	0	0	0
1.94	0	0	0	0	0	0	0	0	0	0	0	0	0	0	0	0	0	0	0	0	0	0	0	0	0	0	0
1.95	0	0	0	0	0	0	0	0	0	0	0	0	0	0	0	0	0	0	0	0	0	0	0	0	0	0	0
1.96	0	0	0	0	0	0	0	0	0	0	0	0	0	0	0	0	0	0	0	0	0	0	0	0	0	0	0
1.97	0	0	0	0	0	0	0	0	0	0	0	0	0	0	0	0	0	0	0	0	0	0	0	0	0	0	0
1.98	0	0	0	0	0	0	0	0	0	0	0	0	0	0	0	0	0	0	0	0	0	0	0	0	0	0	0
1.99	0	0	0	0	0	0	0	0	0	0	0	0	0	0	0	0	0	0	0	0	0	0	0	0	0	0	0
2	0	0	0	0	0	0	0	0	0	0	0	0	0	0	0	0	0	0	0	0	0	0	0	0	0	0	0
2.01	0	0	0	0	0	0	0	0	0	0	0	0	0	0	0	0	0	0	0	0	0	0	0	0	0	0	0
2.02	0	0	0	0	0	0	0	0	0	0	0	0	0	0	0	0	0	0	0	0	0	0	0	0	0	0	0
2.03	0	0	0	0	0	0	0	0	0	0	0	0	0	0	0	0	0	0	0	0	0	0	0	0	0	0	0
2.04	0	0	0	0	0	0	0	0	0	0	0	0	0	0	0	0	0	0	0	0	0	0	0	0	0	0	0
2.05	0	0	0	0	0	0	0	0	0	0	0	0	0	0	0	0	0	0	0	0	0	0	0	0	0	0	0
2.06	0	0	0	0	0	0	0	0	0	0	0	0	0	0	0	0	0	0	0	0	0	0	0	0	0	0	0
2.07	0	0	0	0	0	0	0	0	0	0	0	0	0	0	0	0	0	0	0	0	0	0	0	0	0	0	0
2.08	0	0	0	0	0	0	0	0	0	0	0	0	0	0	0	0	0	0	0	0	0	0	0	0	0	0	0
2.09	0	0	0	0	0	0	0	0	0	0	0	0	0	0	0	0	0	0	0	0	0	0	0	0	0	0	0
2.1	0	0	0	0	0	0	0	0	0	0	0	0	0	0	0	0	0	0	0	0	0	0	0	0	0	0	0
2.11	0	0	0	0	0	0	0	0	0	0	0	0	0	0	0	0	0	0	0	0	0	0	0	0	0	0	0
2.12	0	0	0	0	0	0	0	0	0	0	0	0	0	0	0	0	0	0	0	0	0	0	0	0	0	0	0
2.13	0	0	0	0	0	0	0	0	0	0	0	0	0	0	0	0	0	0	0	0	0	0	0	0	0	0	0
2.14	0	0	0	0	0	0	0	0	0	0	0	0	0	0	0	0	0	0	0	0	0	0	0	0	0	0	0
2.15	0	0	0	0	0	0	0	0	0	0	0	0	0	0	0	0	0	0	0	0	0	0	0	0	0	0	0
2.16	0	0	0	0	0	0	0	0	0	0	0	0	0	0	0	0	0	0	0	0	0	0	0	0	0	0	0
2.17	0	0	0	0	0	0	0	0	0	0	0	0	0	0	0	0	0	0	0	0	0	0	0	0	0	0	0
2.18	0	0	0	0	0	0	0	0	0	0	0	0	0	0	0	0	0	0	0	0	0	0	0	0	0	0	0
2.19	0	0	0	0	0	0	0	0	0	0	0	0	0	0	0	0	0	0	0	0	0	0	0	0	0	0	0
2.2	0	0	0	0	0	0	0	0	0	0	0	0	0	0	0	0	0	0	0	0	0	0	0	0	0	0	0
2.21	0	0	0	0	0	0	0	0	0	0	0	0	0	0	0	0	0	0	0	0	0	0	0	0	0	0	0
2.22	0	0	0	0	0	0	0	0	0	0	0	0	0	0	0	0	0	0	0	0	0	0	0	0	0	0	0
2.23	0	0	0	0	0	0	0	0	0	0	0	0	0	0	0	0	0	0	0	0	0	0	0	0	0	0	0
2.24	0	0	0	0	0	0	0	0	0	0	0	0	0	0	0	0	0	0	0	0	0	0	0	0	0	0	0
2.25	0	0	0	0	0	0	0	0	0	0	0	0	0	0	0	0	0	0	0	0	0	0	0	0	0	0	0
2.26	0	0	0	0	0	0	0	0	0	0	0	0	0	0	0	0	0	0	0	0	0	0	0	0	0	0	0
2.27	0	0	0	0	0	0	0	0	0	0	0	0	0	0	0	0	0	0	0	0	0	0	0	0	0	0	0
2.28	0	0	0	0	0	0	0	0	0	0	0	0	0	0	0	0	0	0	0	0	0	0	0	0	0	0	0
2.29	0	0	0	0	0	0	0	0	0	0	0	0	0	0	0	0	0	0	0	0	0	0	0	0	0	0	0
2.3	0	0	0	0	0	0	0	0	0	0	0	0	0	0	0	0	0	0	0	0	0	0	0	0	0	0	0
2.31	0	0	0	0	0	0	0	0	0	0	0	0	0	0	0	0	0	0	0	0	0	0	0	0	0	0	0
2.32	0	0	0	0	0	0	0	0	0	0	0	0	0	0	0	0	0	0	0	0	0	0	0	0	0	0	0
2.33	0	0	0	0	0	0	0	0	0	0	0	0	0	0	0	0	0	0	0	0	0	0	0	0	0	0	0
